<mxfile host="app.diagrams.net" modified="2021-05-28T10:38:39.317Z" agent="5.0 (Windows NT 10.0; Win64; x64) AppleWebKit/537.36 (KHTML, like Gecko) Chrome/90.0.4430.212 Safari/537.36" etag="YxoR_mTxtOySJU0xjgyw" version="14.7.0" type="github">
  <diagram id="D653Z2soKLTQU5s9D8Ap" name="第 1 页">
    <mxGraphModel dx="1038" dy="548" grid="1" gridSize="10" guides="1" tooltips="1" connect="1" arrows="1" fold="1" page="1" pageScale="1" pageWidth="827" pageHeight="1169" math="0" shadow="0">
      <root>
        <mxCell id="0" />
        <mxCell id="1" parent="0" />
        <mxCell id="WAuKIn6NWarH_eysu6qo-1" value="&lt;font face=&quot;Comic Sans MS&quot;&gt;&lt;b&gt;Thread1&lt;/b&gt;&lt;/font&gt;" style="rounded=0;whiteSpace=wrap;html=1;sketch=1;" parent="1" vertex="1">
          <mxGeometry x="90" y="120" width="160" height="180" as="geometry" />
        </mxCell>
        <mxCell id="WAuKIn6NWarH_eysu6qo-2" value="ThreadLocalMap" style="rounded=0;whiteSpace=wrap;html=1;sketch=1;fontStyle=1;fontFamily=Comic Sans MS;" parent="1" vertex="1">
          <mxGeometry x="100" y="150" width="140" height="30" as="geometry" />
        </mxCell>
        <mxCell id="WAuKIn6NWarH_eysu6qo-3" value="" style="edgeStyle=elbowEdgeStyle;elbow=horizontal;endArrow=classic;html=1;sketch=1;exitX=1;exitY=0.5;exitDx=0;exitDy=0;entryX=0;entryY=0.5;entryDx=0;entryDy=0;" parent="1" source="WAuKIn6NWarH_eysu6qo-2" target="WAuKIn6NWarH_eysu6qo-4" edge="1">
          <mxGeometry width="50" height="50" relative="1" as="geometry">
            <mxPoint x="290" y="160" as="sourcePoint" />
            <mxPoint x="370" y="110" as="targetPoint" />
          </mxGeometry>
        </mxCell>
        <mxCell id="WAuKIn6NWarH_eysu6qo-4" value="" style="rounded=0;whiteSpace=wrap;html=1;sketch=1;" parent="1" vertex="1">
          <mxGeometry x="370" y="90" width="270" height="60" as="geometry" />
        </mxCell>
        <mxCell id="WAuKIn6NWarH_eysu6qo-5" value="&lt;b&gt;&lt;font face=&quot;Comic Sans MS&quot; style=&quot;font-size: 22px&quot;&gt;key&lt;/font&gt;&lt;/b&gt;" style="rounded=1;whiteSpace=wrap;html=1;strokeWidth=2;fillWeight=4;hachureGap=8;hachureAngle=45;fillColor=#1ba1e2;sketch=1;" parent="1" vertex="1">
          <mxGeometry x="380" y="100" width="100" height="40" as="geometry" />
        </mxCell>
        <mxCell id="WAuKIn6NWarH_eysu6qo-6" value="&lt;b&gt;&lt;font face=&quot;Comic Sans MS&quot; style=&quot;font-size: 21px&quot;&gt;value&lt;/font&gt;&lt;/b&gt;" style="rounded=1;whiteSpace=wrap;html=1;strokeWidth=2;fillWeight=4;hachureGap=8;hachureAngle=45;fillColor=#1ba1e2;sketch=1;" parent="1" vertex="1">
          <mxGeometry x="520" y="100" width="100" height="40" as="geometry" />
        </mxCell>
        <mxCell id="WAuKIn6NWarH_eysu6qo-7" value="ThreadLocalMap.Entry1" style="text;html=1;strokeColor=none;fillColor=none;align=center;verticalAlign=middle;whiteSpace=wrap;rounded=0;sketch=1;fontFamily=Comic Sans MS;fontStyle=1" parent="1" vertex="1">
          <mxGeometry x="440" y="66" width="140" height="20" as="geometry" />
        </mxCell>
        <mxCell id="WAuKIn6NWarH_eysu6qo-8" value="&lt;b&gt;&lt;font style=&quot;font-size: 22px&quot;&gt;ThreadLocal&amp;lt;String&amp;gt;&lt;/font&gt;&lt;/b&gt;" style="rounded=0;whiteSpace=wrap;html=1;sketch=1;fontFamily=Comic Sans MS;" parent="1" vertex="1">
          <mxGeometry x="360" y="340" width="270" height="60" as="geometry" />
        </mxCell>
        <mxCell id="WAuKIn6NWarH_eysu6qo-9" value="" style="endArrow=none;dashed=1;html=1;fontFamily=Comic Sans MS;entryX=0.5;entryY=1;entryDx=0;entryDy=0;exitX=0.25;exitY=0;exitDx=0;exitDy=0;sketch=1;" parent="1" source="WAuKIn6NWarH_eysu6qo-8" target="WAuKIn6NWarH_eysu6qo-5" edge="1">
          <mxGeometry width="50" height="50" relative="1" as="geometry">
            <mxPoint x="390" y="300" as="sourcePoint" />
            <mxPoint x="440" y="250" as="targetPoint" />
          </mxGeometry>
        </mxCell>
        <mxCell id="WAuKIn6NWarH_eysu6qo-10" value="&lt;font face=&quot;Comic Sans MS&quot;&gt;&lt;b&gt;Thread2&lt;/b&gt;&lt;/font&gt;" style="rounded=0;whiteSpace=wrap;html=1;sketch=1;" parent="1" vertex="1">
          <mxGeometry x="90" y="440" width="160" height="190" as="geometry" />
        </mxCell>
        <mxCell id="WAuKIn6NWarH_eysu6qo-11" value="ThreadLocalMap" style="rounded=0;whiteSpace=wrap;html=1;sketch=1;fontStyle=1;fontFamily=Comic Sans MS;" parent="1" vertex="1">
          <mxGeometry x="100" y="580" width="140" height="30" as="geometry" />
        </mxCell>
        <mxCell id="WAuKIn6NWarH_eysu6qo-12" value="" style="edgeStyle=elbowEdgeStyle;elbow=horizontal;endArrow=classic;html=1;sketch=1;exitX=1;exitY=0.5;exitDx=0;exitDy=0;" parent="1" source="WAuKIn6NWarH_eysu6qo-11" edge="1">
          <mxGeometry width="50" height="50" relative="1" as="geometry">
            <mxPoint x="250" y="595" as="sourcePoint" />
            <mxPoint x="370" y="640" as="targetPoint" />
            <Array as="points">
              <mxPoint x="300" y="570" />
              <mxPoint x="315" y="570" />
            </Array>
          </mxGeometry>
        </mxCell>
        <mxCell id="WAuKIn6NWarH_eysu6qo-13" value="" style="rounded=0;whiteSpace=wrap;html=1;sketch=1;" parent="1" vertex="1">
          <mxGeometry x="370" y="609" width="270" height="60" as="geometry" />
        </mxCell>
        <mxCell id="WAuKIn6NWarH_eysu6qo-14" value="&lt;b&gt;&lt;font face=&quot;Comic Sans MS&quot; style=&quot;font-size: 22px&quot;&gt;key&lt;/font&gt;&lt;/b&gt;" style="rounded=1;whiteSpace=wrap;html=1;strokeWidth=2;fillWeight=4;hachureGap=8;hachureAngle=45;fillColor=#1ba1e2;sketch=1;" parent="1" vertex="1">
          <mxGeometry x="380" y="619" width="100" height="40" as="geometry" />
        </mxCell>
        <mxCell id="WAuKIn6NWarH_eysu6qo-15" value="&lt;b&gt;&lt;font face=&quot;Comic Sans MS&quot; style=&quot;font-size: 21px&quot;&gt;value&lt;/font&gt;&lt;/b&gt;" style="rounded=1;whiteSpace=wrap;html=1;strokeWidth=2;fillWeight=4;hachureGap=8;hachureAngle=45;fillColor=#1ba1e2;sketch=1;" parent="1" vertex="1">
          <mxGeometry x="520" y="619" width="100" height="40" as="geometry" />
        </mxCell>
        <mxCell id="WAuKIn6NWarH_eysu6qo-16" value="ThreadLocalMap.Entry1" style="text;html=1;strokeColor=none;fillColor=none;align=center;verticalAlign=middle;whiteSpace=wrap;rounded=0;sketch=1;fontFamily=Comic Sans MS;fontStyle=1" parent="1" vertex="1">
          <mxGeometry x="440" y="585" width="130" height="20" as="geometry" />
        </mxCell>
        <mxCell id="WAuKIn6NWarH_eysu6qo-17" value="" style="endArrow=none;dashed=1;html=1;fontFamily=Comic Sans MS;entryX=0.25;entryY=1;entryDx=0;entryDy=0;exitX=0.5;exitY=0;exitDx=0;exitDy=0;sketch=1;" parent="1" source="WAuKIn6NWarH_eysu6qo-14" target="WAuKIn6NWarH_eysu6qo-8" edge="1">
          <mxGeometry width="50" height="50" relative="1" as="geometry">
            <mxPoint x="430" y="600" as="sourcePoint" />
            <mxPoint x="290" y="360" as="targetPoint" />
          </mxGeometry>
        </mxCell>
        <mxCell id="WAuKIn6NWarH_eysu6qo-18" value="&lt;b&gt;&lt;font style=&quot;font-size: 20px&quot;&gt;Main&lt;/font&gt;&lt;/b&gt;" style="rounded=0;whiteSpace=wrap;html=1;sketch=1;fontFamily=Comic Sans MS;" parent="1" vertex="1">
          <mxGeometry x="90" y="340" width="160" height="60" as="geometry" />
        </mxCell>
        <mxCell id="WAuKIn6NWarH_eysu6qo-19" value="" style="endArrow=none;html=1;fontFamily=Comic Sans MS;exitX=1;exitY=0.5;exitDx=0;exitDy=0;entryX=0;entryY=0.5;entryDx=0;entryDy=0;sketch=1;strokeWidth=2;" parent="1" source="WAuKIn6NWarH_eysu6qo-18" target="WAuKIn6NWarH_eysu6qo-8" edge="1">
          <mxGeometry width="50" height="50" relative="1" as="geometry">
            <mxPoint x="290" y="380" as="sourcePoint" />
            <mxPoint x="340" y="330" as="targetPoint" />
          </mxGeometry>
        </mxCell>
        <mxCell id="WAuKIn6NWarH_eysu6qo-20" value="" style="rounded=0;whiteSpace=wrap;html=1;sketch=1;" parent="1" vertex="1">
          <mxGeometry x="680" y="90" width="270" height="60" as="geometry" />
        </mxCell>
        <mxCell id="WAuKIn6NWarH_eysu6qo-21" value="&lt;b&gt;&lt;font face=&quot;Comic Sans MS&quot; style=&quot;font-size: 22px&quot;&gt;key&lt;/font&gt;&lt;/b&gt;" style="rounded=1;whiteSpace=wrap;html=1;strokeWidth=2;fillWeight=4;hachureGap=8;hachureAngle=45;fillColor=#1ba1e2;sketch=1;" parent="1" vertex="1">
          <mxGeometry x="690" y="100" width="100" height="40" as="geometry" />
        </mxCell>
        <mxCell id="WAuKIn6NWarH_eysu6qo-22" value="&lt;b&gt;&lt;font face=&quot;Comic Sans MS&quot; style=&quot;font-size: 21px&quot;&gt;value&lt;/font&gt;&lt;/b&gt;" style="rounded=1;whiteSpace=wrap;html=1;strokeWidth=2;fillWeight=4;hachureGap=8;hachureAngle=45;fillColor=#1ba1e2;sketch=1;" parent="1" vertex="1">
          <mxGeometry x="830" y="100" width="100" height="40" as="geometry" />
        </mxCell>
        <mxCell id="WAuKIn6NWarH_eysu6qo-23" value="ThreadLocalMap.Entry2" style="text;html=1;strokeColor=none;fillColor=none;align=center;verticalAlign=middle;whiteSpace=wrap;rounded=0;sketch=1;fontFamily=Comic Sans MS;fontStyle=1" parent="1" vertex="1">
          <mxGeometry x="750" y="66" width="125" height="20" as="geometry" />
        </mxCell>
        <mxCell id="WAuKIn6NWarH_eysu6qo-24" value="&lt;b&gt;&lt;font style=&quot;font-size: 22px&quot;&gt;ThreadLocal&amp;lt;User&amp;gt;&lt;/font&gt;&lt;/b&gt;" style="rounded=0;whiteSpace=wrap;html=1;sketch=1;fontFamily=Comic Sans MS;" parent="1" vertex="1">
          <mxGeometry x="670" y="340" width="270" height="60" as="geometry" />
        </mxCell>
        <mxCell id="WAuKIn6NWarH_eysu6qo-25" value="" style="endArrow=none;dashed=1;html=1;fontFamily=Comic Sans MS;entryX=0.5;entryY=1;entryDx=0;entryDy=0;exitX=0.25;exitY=0;exitDx=0;exitDy=0;sketch=1;" parent="1" source="WAuKIn6NWarH_eysu6qo-24" target="WAuKIn6NWarH_eysu6qo-21" edge="1">
          <mxGeometry width="50" height="50" relative="1" as="geometry">
            <mxPoint x="700" y="300" as="sourcePoint" />
            <mxPoint x="750" y="250" as="targetPoint" />
          </mxGeometry>
        </mxCell>
        <mxCell id="WAuKIn6NWarH_eysu6qo-26" value="" style="rounded=0;whiteSpace=wrap;html=1;sketch=1;" parent="1" vertex="1">
          <mxGeometry x="680" y="609" width="270" height="60" as="geometry" />
        </mxCell>
        <mxCell id="WAuKIn6NWarH_eysu6qo-27" value="&lt;b&gt;&lt;font face=&quot;Comic Sans MS&quot; style=&quot;font-size: 22px&quot;&gt;key&lt;/font&gt;&lt;/b&gt;" style="rounded=1;whiteSpace=wrap;html=1;strokeWidth=2;fillWeight=4;hachureGap=8;hachureAngle=45;fillColor=#1ba1e2;sketch=1;" parent="1" vertex="1">
          <mxGeometry x="690" y="619" width="100" height="40" as="geometry" />
        </mxCell>
        <mxCell id="WAuKIn6NWarH_eysu6qo-28" value="&lt;b&gt;&lt;font face=&quot;Comic Sans MS&quot; style=&quot;font-size: 21px&quot;&gt;value&lt;/font&gt;&lt;/b&gt;" style="rounded=1;whiteSpace=wrap;html=1;strokeWidth=2;fillWeight=4;hachureGap=8;hachureAngle=45;fillColor=#1ba1e2;sketch=1;" parent="1" vertex="1">
          <mxGeometry x="830" y="619" width="100" height="40" as="geometry" />
        </mxCell>
        <mxCell id="WAuKIn6NWarH_eysu6qo-29" value="ThreadLocalMap.Entry2" style="text;html=1;strokeColor=none;fillColor=none;align=center;verticalAlign=middle;whiteSpace=wrap;rounded=0;sketch=1;fontFamily=Comic Sans MS;fontStyle=1" parent="1" vertex="1">
          <mxGeometry x="750" y="585" width="150" height="20" as="geometry" />
        </mxCell>
        <mxCell id="WAuKIn6NWarH_eysu6qo-30" value="" style="endArrow=none;dashed=1;html=1;fontFamily=Comic Sans MS;entryX=0.25;entryY=1;entryDx=0;entryDy=0;exitX=0.5;exitY=0;exitDx=0;exitDy=0;sketch=1;" parent="1" source="WAuKIn6NWarH_eysu6qo-27" target="WAuKIn6NWarH_eysu6qo-24" edge="1">
          <mxGeometry width="50" height="50" relative="1" as="geometry">
            <mxPoint x="740" y="600" as="sourcePoint" />
            <mxPoint x="600" y="360" as="targetPoint" />
          </mxGeometry>
        </mxCell>
        <mxCell id="WAuKIn6NWarH_eysu6qo-31" value="" style="endArrow=none;html=1;fontFamily=Comic Sans MS;exitX=1;exitY=0.5;exitDx=0;exitDy=0;sketch=1;strokeWidth=2;" parent="1" edge="1">
          <mxGeometry width="50" height="50" relative="1" as="geometry">
            <mxPoint x="630" y="369.5" as="sourcePoint" />
            <mxPoint x="670" y="370" as="targetPoint" />
          </mxGeometry>
        </mxCell>
        <mxCell id="WAuKIn6NWarH_eysu6qo-32" value="&lt;b&gt;&lt;font style=&quot;font-size: 16px&quot;&gt;&quot;hello word&quot;&lt;/font&gt;&lt;/b&gt;" style="ellipse;shape=doubleEllipse;whiteSpace=wrap;html=1;aspect=fixed;sketch=1;fontFamily=Comic Sans MS;" parent="1" vertex="1">
          <mxGeometry x="530" y="230" width="80" height="80" as="geometry" />
        </mxCell>
        <mxCell id="WAuKIn6NWarH_eysu6qo-33" value="" style="endArrow=none;html=1;fontFamily=Comic Sans MS;strokeWidth=2;entryX=0.5;entryY=1;entryDx=0;entryDy=0;exitX=0.5;exitY=0;exitDx=0;exitDy=0;sketch=1;" parent="1" source="WAuKIn6NWarH_eysu6qo-32" target="WAuKIn6NWarH_eysu6qo-6" edge="1">
          <mxGeometry width="50" height="50" relative="1" as="geometry">
            <mxPoint x="540" y="390" as="sourcePoint" />
            <mxPoint x="590" y="340" as="targetPoint" />
          </mxGeometry>
        </mxCell>
        <mxCell id="WAuKIn6NWarH_eysu6qo-34" value="&lt;b&gt;&lt;font style=&quot;font-size: 16px&quot;&gt;&quot;字符串&quot;&lt;/font&gt;&lt;/b&gt;" style="ellipse;shape=doubleEllipse;whiteSpace=wrap;html=1;aspect=fixed;sketch=1;fontFamily=Comic Sans MS;" parent="1" vertex="1">
          <mxGeometry x="530" y="430" width="80" height="80" as="geometry" />
        </mxCell>
        <mxCell id="WAuKIn6NWarH_eysu6qo-35" value="" style="endArrow=none;html=1;fontFamily=Comic Sans MS;strokeWidth=2;entryX=0.5;entryY=1;entryDx=0;entryDy=0;exitX=0.5;exitY=0;exitDx=0;exitDy=0;sketch=1;" parent="1" source="WAuKIn6NWarH_eysu6qo-15" edge="1">
          <mxGeometry width="50" height="50" relative="1" as="geometry">
            <mxPoint x="569.5" y="600" as="sourcePoint" />
            <mxPoint x="569.5" y="510" as="targetPoint" />
          </mxGeometry>
        </mxCell>
        <mxCell id="WAuKIn6NWarH_eysu6qo-36" value="User1" style="swimlane;fontStyle=1;childLayout=stackLayout;horizontal=1;startSize=26;fillColor=none;horizontalStack=0;resizeParent=1;resizeParentMax=0;resizeLast=0;collapsible=1;marginBottom=0;sketch=1;fontFamily=Comic Sans MS;fontSize=14;" parent="1" vertex="1">
          <mxGeometry x="811" y="215" width="140" height="104" as="geometry" />
        </mxCell>
        <mxCell id="WAuKIn6NWarH_eysu6qo-37" value="name:张三" style="text;strokeColor=none;fillColor=none;align=left;verticalAlign=top;spacingLeft=4;spacingRight=4;overflow=hidden;rotatable=0;points=[[0,0.5],[1,0.5]];portConstraint=eastwest;fontStyle=1;fontSize=14;" parent="WAuKIn6NWarH_eysu6qo-36" vertex="1">
          <mxGeometry y="26" width="140" height="26" as="geometry" />
        </mxCell>
        <mxCell id="WAuKIn6NWarH_eysu6qo-38" value="age:20" style="text;strokeColor=none;fillColor=none;align=left;verticalAlign=top;spacingLeft=4;spacingRight=4;overflow=hidden;rotatable=0;points=[[0,0.5],[1,0.5]];portConstraint=eastwest;fontStyle=1;fontSize=14;" parent="WAuKIn6NWarH_eysu6qo-36" vertex="1">
          <mxGeometry y="52" width="140" height="26" as="geometry" />
        </mxCell>
        <mxCell id="WAuKIn6NWarH_eysu6qo-39" value="sex:男" style="text;strokeColor=none;fillColor=none;align=left;verticalAlign=top;spacingLeft=4;spacingRight=4;overflow=hidden;rotatable=0;points=[[0,0.5],[1,0.5]];portConstraint=eastwest;fontStyle=1;fontSize=14;" parent="WAuKIn6NWarH_eysu6qo-36" vertex="1">
          <mxGeometry y="78" width="140" height="26" as="geometry" />
        </mxCell>
        <mxCell id="WAuKIn6NWarH_eysu6qo-40" value="" style="endArrow=none;html=1;fontFamily=Comic Sans MS;strokeWidth=2;entryX=0.5;entryY=1;entryDx=0;entryDy=0;sketch=1;exitX=0.5;exitY=0;exitDx=0;exitDy=0;" parent="1" source="WAuKIn6NWarH_eysu6qo-36" target="WAuKIn6NWarH_eysu6qo-22" edge="1">
          <mxGeometry width="50" height="50" relative="1" as="geometry">
            <mxPoint x="880" y="210" as="sourcePoint" />
            <mxPoint x="879.5" y="165" as="targetPoint" />
          </mxGeometry>
        </mxCell>
        <mxCell id="WAuKIn6NWarH_eysu6qo-41" value="User2" style="swimlane;fontStyle=1;childLayout=stackLayout;horizontal=1;startSize=26;fillColor=none;horizontalStack=0;resizeParent=1;resizeParentMax=0;resizeLast=0;collapsible=1;marginBottom=0;sketch=1;fontFamily=Comic Sans MS;fontSize=14;" parent="1" vertex="1">
          <mxGeometry x="810" y="420" width="140" height="104" as="geometry" />
        </mxCell>
        <mxCell id="WAuKIn6NWarH_eysu6qo-42" value="name:李四" style="text;strokeColor=none;fillColor=none;align=left;verticalAlign=top;spacingLeft=4;spacingRight=4;overflow=hidden;rotatable=0;points=[[0,0.5],[1,0.5]];portConstraint=eastwest;fontStyle=1;fontSize=14;" parent="WAuKIn6NWarH_eysu6qo-41" vertex="1">
          <mxGeometry y="26" width="140" height="26" as="geometry" />
        </mxCell>
        <mxCell id="WAuKIn6NWarH_eysu6qo-43" value="age:20" style="text;strokeColor=none;fillColor=none;align=left;verticalAlign=top;spacingLeft=4;spacingRight=4;overflow=hidden;rotatable=0;points=[[0,0.5],[1,0.5]];portConstraint=eastwest;fontStyle=1;fontSize=14;" parent="WAuKIn6NWarH_eysu6qo-41" vertex="1">
          <mxGeometry y="52" width="140" height="26" as="geometry" />
        </mxCell>
        <mxCell id="WAuKIn6NWarH_eysu6qo-44" value="sex:男" style="text;strokeColor=none;fillColor=none;align=left;verticalAlign=top;spacingLeft=4;spacingRight=4;overflow=hidden;rotatable=0;points=[[0,0.5],[1,0.5]];portConstraint=eastwest;fontStyle=1;fontSize=14;" parent="WAuKIn6NWarH_eysu6qo-41" vertex="1">
          <mxGeometry y="78" width="140" height="26" as="geometry" />
        </mxCell>
        <mxCell id="WAuKIn6NWarH_eysu6qo-45" value="" style="endArrow=none;html=1;fontFamily=Comic Sans MS;strokeWidth=2;sketch=1;exitX=0.5;exitY=0;exitDx=0;exitDy=0;entryX=0.511;entryY=1.015;entryDx=0;entryDy=0;entryPerimeter=0;" parent="1" source="WAuKIn6NWarH_eysu6qo-28" target="WAuKIn6NWarH_eysu6qo-44" edge="1">
          <mxGeometry width="50" height="50" relative="1" as="geometry">
            <mxPoint x="976" y="585" as="sourcePoint" />
            <mxPoint x="870" y="530" as="targetPoint" />
          </mxGeometry>
        </mxCell>
      </root>
    </mxGraphModel>
  </diagram>
</mxfile>
